<svg id="SVGRoot" version="1.1" viewBox="0 0 16 16" xmlns="http://www.w3.org/2000/svg">
 <path transform="matrix(1.2568 0 0 1.2501 -2.0545 -2.0008)" d="m2.1944 10.626 2.0795 0.67585-2.6392-3.2924 1.6248 1.4632-1.0719-4.0812 0.88918 1.9976 0.68072-4.1644-1.821e-4 2.1865 2.3157-3.5275-0.88951 1.9974 3.5502-2.2806-1.625 1.4629 4.1709-0.63946-2.0796 0.67551 4.0704 1.1123-2.1745-0.22874 3.2661 2.6717-1.8935-1.0934 1.897 3.7692-1.2851-1.7691 0.19998 4.2149-0.45443-2.1388-1.5317 3.9318 0.45479-2.1387-2.9985 2.9689 1.2854-1.7688-3.9468 1.4927 1.8937-1.0931-4.2127-0.24169 2.1746-0.22838z"/>
</svg>
